<svg width="124" height="36" viewBox="0 0 124 36" fill="none" xmlns="http://www.w3.org/2000/svg">
<g clip-path="url(#clip0_1370_489)">
<rect width="124" height="36" fill="#050708"/>
<mask id="mask0_1370_489" style="mask-type:luminance" maskUnits="userSpaceOnUse" x="6" y="0" width="111" height="37">
<path d="M116.811 0H6.87061V36.6469H116.811V0Z" fill="white"/>
</mask>
<g mask="url(#mask0_1370_489)">
<path d="M110.513 0.572754H13.1694C10.007 0.572754 7.44336 3.13641 7.44336 6.29883V30.3483C7.44336 33.5108 10.007 36.0744 13.1694 36.0744H110.513C113.675 36.0744 116.239 33.5108 116.239 30.3483V6.29883C116.239 3.13641 113.675 0.572754 110.513 0.572754Z" fill="#050708"/>
<path d="M81.5396 17.5786V19.6973H80.2227V21.0715H81.5396V25.7669C81.5396 27.3129 82.284 28.0001 84.1164 28.0001L84.9753 27.8856V26.5113H84.3454C83.5438 26.5113 83.2002 26.1105 83.2002 25.2516V21.0715H84.9753V19.6973H83.2002V17.5786H81.5396Z" fill="white"/>
<path d="M89.6144 28.1151C92.0194 28.1151 93.5082 26.4546 93.5082 23.7633C93.5082 21.0721 92.0194 19.4688 89.6144 19.4688C87.2095 19.4688 85.7207 21.1293 85.7207 23.7633C85.7207 26.3973 87.2095 28.1151 89.6144 28.1151ZM89.6144 26.6263C88.1829 26.6263 87.3813 25.5957 87.3813 23.7633C87.3813 21.931 88.1829 20.9575 89.6144 20.9575C91.046 20.9575 91.8476 21.9882 91.8476 23.7633C91.8476 25.5384 91.046 26.6263 89.6144 26.6263Z" fill="white"/>
<path d="M94.7661 27.9427H96.4267V23.0182C96.4255 22.7474 96.4811 22.4794 96.5893 22.2313C96.6981 21.9831 96.8567 21.7603 97.056 21.5771C97.2558 21.3939 97.4912 21.2543 97.7477 21.1672C98.0036 21.0801 98.2756 21.0475 98.5453 21.0714L99.4615 21.1859V19.5826H98.7171C98.2476 19.5469 97.7786 19.6606 97.3778 19.9074C96.9764 20.1543 96.6637 20.5216 96.4839 20.9568H96.3694V19.6398H94.7661V27.9427Z" fill="white"/>
<path d="M103.528 20.9003C103.804 20.8911 104.078 20.9405 104.333 21.0453C104.588 21.1501 104.818 21.3079 105.007 21.5081C105.197 21.7084 105.342 21.9467 105.432 22.2071C105.523 22.4676 105.557 22.7443 105.532 23.0189H101.352C101.367 22.4518 101.603 21.913 102.009 21.5172C102.416 21.1215 102.961 20.9001 103.528 20.9003ZM105.532 25.7102C105.246 26.34 104.559 26.6836 103.586 26.6836C102.612 26.6836 101.41 25.7674 101.352 24.3359V24.2214H107.193V23.6488C107.193 21.0721 105.819 19.4688 103.528 19.4688C101.238 19.4688 99.6919 21.1866 99.6919 23.8206C99.6919 26.4546 101.181 28.1151 103.528 28.1151C105.876 28.1151 106.735 27.199 107.136 25.7102H105.532Z" fill="white"/>
<path d="M70.833 24.8503C70.9475 26.9117 72.6654 28.2287 75.1848 28.2287C77.7043 28.2287 79.5939 26.8545 79.5939 24.6786C79.5939 22.5027 78.6205 21.9873 76.2728 21.472L75.013 21.1857C73.5243 20.8421 72.9517 20.3267 72.9517 19.5251C72.9517 18.7234 73.8678 17.8645 75.2421 17.8645C76.6163 17.8645 77.4753 18.4944 77.647 19.5251H79.3649C79.3076 17.6355 77.5898 16.2612 75.2993 16.2612C73.0089 16.2612 71.1766 17.6355 71.1766 19.6396C71.1766 21.6437 72.0927 22.3309 74.1541 22.789L75.5856 23.1325C77.1317 23.5333 77.7616 24.0487 77.7616 24.9076C77.7616 25.7665 76.7309 26.6254 75.2993 26.6254C73.8678 26.6254 72.7226 25.9383 72.6081 24.8503H70.833Z" fill="white"/>
<path d="M53.8829 19.527C53.3594 19.5214 52.844 19.6566 52.3907 19.9186C51.9374 20.1805 51.5628 20.5594 51.3062 21.0158H51.1917V19.6415H49.5884V30.6929H51.2489V26.6846H51.3635C51.6204 27.1326 51.9985 27.4992 52.4542 27.7422C52.91 27.9853 53.425 28.0951 53.9402 28.0589C56.0016 28.0589 57.3186 26.3983 57.3186 23.7643C57.3186 21.1303 56.0016 19.527 53.8829 19.527ZM53.4248 26.6274C52.0506 26.6274 51.1917 25.5394 51.1917 23.8216C51.1917 22.1038 52.0506 20.9585 53.4248 20.9585C54.7991 20.9585 55.658 22.0465 55.658 23.7643C55.658 25.4821 54.8564 26.6274 53.4248 26.6274Z" fill="white"/>
<path d="M63.0446 19.527C62.521 19.5214 62.0056 19.6566 61.5523 19.9186C61.099 20.1805 60.7244 20.5594 60.4678 21.0158H60.3533V19.6415H58.75V30.6929H60.4106V26.6846H60.5251C60.7821 27.1326 61.1601 27.4992 61.6158 27.7422C62.0716 27.9853 62.5866 28.0951 63.1018 28.0589C65.1634 28.0589 66.4804 26.3983 66.4804 23.7643C66.4804 21.1303 65.1634 19.527 63.0446 19.527ZM62.5865 26.6274C61.2122 26.6274 60.3533 25.5394 60.3533 23.8216C60.3533 22.1038 61.2122 20.9585 62.5865 20.9585C63.9607 20.9585 64.8199 22.0465 64.8199 23.7643C64.8199 25.4821 64.018 26.6274 62.5865 26.6274Z" fill="white"/>
<path d="M46.6679 27.9425H48.5575L44.4347 16.5476H42.5451L38.4224 27.9425H40.2547L41.2854 24.9077H45.6372L46.6679 27.9425ZM43.4041 18.609H43.5186L45.1791 23.4189H41.7435L43.4041 18.609Z" fill="white"/>
<path d="M39.5093 7.9585V13.4555H41.5134C43.174 13.4555 44.0901 12.4821 44.0901 10.707C44.0901 8.93193 43.1167 7.9585 41.5134 7.9585H39.5093ZM40.3682 8.76015H41.3989C42.5441 8.76015 43.2312 9.50454 43.2312 10.707C43.2312 11.9095 42.5441 12.7111 41.3989 12.7111H40.3682V8.76015Z" fill="white"/>
<path d="M47.0128 13.5718C48.2153 13.5718 48.9596 12.7129 48.9596 11.3959C48.9596 10.0789 48.2153 9.21997 47.0128 9.21997C45.8103 9.21997 45.0659 10.0789 45.0659 11.3959C45.0659 12.7129 45.8103 13.5718 47.0128 13.5718ZM47.0128 12.8274C46.2684 12.8274 45.8676 12.3121 45.8676 11.3959C45.8676 10.4797 46.2684 9.96436 47.0128 9.96436C47.7572 9.96436 48.1007 10.4797 48.1007 11.3959C48.1007 12.3121 47.6999 12.8274 47.0128 12.8274Z" fill="white"/>
<path d="M55.2559 9.33423H54.4542L53.7098 12.4836H53.6526L52.7936 9.33423H51.992L51.1331 12.4836H51.0758L50.3314 9.33423H49.5298L50.675 13.457H51.4767L52.3356 10.4222H52.3928L53.2517 13.457H54.1106L55.2559 9.33423Z" fill="white"/>
<path d="M56.231 13.4571H57.0326V11.0521C57.0248 10.9196 57.0442 10.7868 57.0896 10.662C57.135 10.5372 57.2055 10.423 57.2967 10.3265C57.3879 10.2299 57.4979 10.1531 57.6198 10.1006C57.7418 10.0481 57.8733 10.0212 58.006 10.0214C58.6359 10.0214 58.9222 10.3078 58.9222 10.9949V13.4571H59.7239V10.7658C59.7239 9.7924 59.2085 9.2198 58.2923 9.2198C58.0323 9.20537 57.7738 9.26841 57.5496 9.40091C57.3254 9.53341 57.1455 9.72942 57.0326 9.96419H56.9753V9.33432H56.231V13.4571Z" fill="white"/>
<path d="M60.9824 13.4563H61.8413V7.73022H60.9824V13.4563Z" fill="white"/>
<path d="M64.8749 13.5718C66.1346 13.5718 66.8217 12.7129 66.8217 11.3959C66.8217 10.0789 66.0773 9.21997 64.8749 9.21997C63.6726 9.21997 62.9282 10.0789 62.9282 11.3959C62.9282 12.7129 63.6726 13.5718 64.8749 13.5718ZM64.8749 12.8274C64.1877 12.8274 63.7871 12.3121 63.7871 11.3959C63.7871 10.4797 64.1877 9.96436 64.8749 9.96436C65.562 9.96436 66.0201 10.4797 66.0201 11.3959C66.0201 12.3121 65.6192 12.8274 64.8749 12.8274Z" fill="white"/>
<path d="M69.2845 12.8274C68.8264 12.8274 68.5401 12.6556 68.5401 12.2548C68.5401 11.854 68.7692 11.6822 69.3418 11.6822H70.3725V12.0257C70.3725 12.4838 69.9144 12.8274 69.2845 12.8274ZM69.0555 13.5145C69.3028 13.5329 69.5502 13.4841 69.7718 13.3732C69.994 13.2624 70.1818 13.0935 70.3152 12.8847H70.3725V13.4573H71.1741V10.6515C71.1741 9.79258 70.6015 9.21997 69.5708 9.21997C68.5401 9.21997 67.9675 9.67806 67.853 10.4224H68.6547C68.7119 10.1361 69.0555 9.96436 69.5136 9.96436C69.9717 9.96436 70.3725 10.1934 70.3725 10.6515V10.9951H69.2273C68.2538 11.0523 67.6812 11.5104 67.6812 12.2548C67.6709 12.433 67.7001 12.6112 67.7671 12.7767C67.8341 12.942 67.9372 13.0905 68.0689 13.211C68.2006 13.3317 68.3575 13.4215 68.5281 13.474C68.6987 13.5264 68.8785 13.5403 69.0555 13.5145Z" fill="white"/>
<path d="M73.9239 13.5136C74.185 13.5305 74.4461 13.4754 74.678 13.3542C74.9105 13.233 75.1052 13.0505 75.2409 12.8264H75.2981V13.4563H76.0998V7.73022H75.2981V9.96339H75.2409C75.1052 9.73933 74.9105 9.55679 74.678 9.43562C74.4461 9.31446 74.185 9.25937 73.9239 9.27627C72.8932 9.27627 72.2061 10.0779 72.2061 11.3949C72.2061 12.7119 72.8932 13.5136 73.9239 13.5136ZM74.1529 10.0207C74.8401 10.0207 75.2981 10.536 75.2981 11.3949C75.2981 12.2538 74.8401 12.8264 74.1529 12.8264C73.4658 12.8264 73.065 12.2538 73.065 11.3949C73.065 10.536 73.4658 10.0207 74.1529 10.0207Z" fill="white"/>
<path d="M81.4265 13.5718C82.629 13.5718 83.3734 12.7129 83.3734 11.3959C83.3734 10.0789 82.629 9.21997 81.4265 9.21997C80.224 9.21997 79.4224 10.0789 79.4224 11.3959C79.4224 12.7129 80.1668 13.5718 81.4265 13.5718ZM81.4265 12.8274C80.6821 12.8274 80.2813 12.3121 80.2813 11.3959C80.2813 10.4797 80.6821 9.96436 81.4265 9.96436C82.1709 9.96436 82.5144 10.4797 82.5144 11.3959C82.5144 12.3121 82.1136 12.8274 81.4265 12.8274Z" fill="white"/>
<path d="M84.4004 13.4571H85.2593V11.0521C85.2421 10.9176 85.2553 10.7809 85.2971 10.6519C85.3389 10.5229 85.4093 10.4049 85.5021 10.3063C85.5954 10.2077 85.7094 10.1309 85.8354 10.0817C85.9619 10.0324 86.0976 10.0118 86.2327 10.0214C86.8626 10.0214 87.1489 10.3078 87.1489 10.9949V13.4571H87.9506V10.7658C87.9506 9.7924 87.4352 9.2198 86.519 9.2198C86.2591 9.20537 86.0008 9.26841 85.7764 9.40091C85.5525 9.53341 85.3727 9.72942 85.2593 9.96419H85.202V9.33432H84.4004V13.4571Z" fill="white"/>
<path d="M91.7311 8.30298V9.33367H91.0439V10.0208H91.7311V12.3685C91.7311 13.1701 92.0746 13.5137 92.9908 13.5137H93.4489V12.7693H93.1053C92.7045 12.7693 92.5327 12.5975 92.5327 12.1395V10.0208H93.4489V9.33367H92.5327V8.30298H91.7311Z" fill="white"/>
<path d="M94.5376 13.4563H95.3392V11.0513C95.3307 10.9138 95.3518 10.7761 95.4005 10.6473C95.4492 10.5184 95.5248 10.4014 95.6221 10.304C95.7195 10.2065 95.8368 10.1309 95.9657 10.0821C96.0945 10.0333 96.2319 10.0123 96.3699 10.0207C96.9425 10.0207 97.2861 10.307 97.2861 10.9941V13.4563H98.0878V10.8223C98.0878 9.79161 97.5724 9.27627 96.6562 9.27627C96.3934 9.24449 96.1277 9.3002 95.8998 9.43482C95.6719 9.56938 95.495 9.77529 95.3965 10.0207H95.3392V7.73022H94.5376V13.4563Z" fill="white"/>
<path d="M101.008 9.96301C101.146 9.95465 101.283 9.97561 101.412 10.0244C101.541 10.0733 101.658 10.1489 101.756 10.2463C101.853 10.3438 101.928 10.4608 101.977 10.5896C102.026 10.7184 102.047 10.8562 102.039 10.9937H99.9776C99.9776 10.7203 100.086 10.4582 100.279 10.2649C100.472 10.0716 100.735 9.96301 101.008 9.96301ZM102.039 12.368C101.924 12.6543 101.581 12.826 101.066 12.826C100.917 12.8263 100.771 12.7963 100.635 12.7381C100.499 12.6799 100.377 12.5946 100.275 12.4874C100.173 12.3803 100.094 12.2534 100.043 12.1148C99.9919 11.9761 99.9695 11.8284 99.9776 11.6808H102.898V11.3945C102.898 10.0775 102.211 9.27588 101.066 9.27588C99.9203 9.27588 99.1187 10.1348 99.1187 11.4518C99.1187 12.7688 99.863 13.6277 101.066 13.6277C101.455 13.6694 101.848 13.5715 102.173 13.3514C102.498 13.1312 102.734 12.8031 102.841 12.4252L102.039 12.368Z" fill="white"/>
<path d="M29.5482 18.6096C29.5689 17.8408 29.7782 17.0889 30.1576 16.42C30.537 15.751 31.0749 15.1855 31.7241 14.7731C31.2973 14.1956 30.7466 13.7211 30.1125 13.3841C29.4783 13.0473 28.7768 12.8567 28.0594 12.8263C26.5134 12.6545 25.0246 13.7424 24.2802 13.7424C23.5358 13.7424 22.2761 12.8263 20.9591 12.8835C20.1188 12.908 19.2989 13.147 18.5772 13.578C17.8556 14.009 17.2562 14.6176 16.8363 15.3457C15.0612 18.4378 16.3782 22.9614 18.096 25.4236C18.955 26.6261 19.9284 28.0004 21.2454 27.9431C22.5624 27.8858 22.9632 27.1414 24.5092 27.1414C26.0553 27.1414 26.4561 27.9431 27.8304 27.8858C29.2046 27.8286 30.0063 26.6834 30.8652 25.4809C31.47 24.6042 31.9337 23.6381 32.2395 22.6178C31.4497 22.2838 30.7744 21.7268 30.2964 21.0148C29.8184 20.3029 29.5584 19.467 29.5482 18.6096Z" fill="white"/>
<path d="M27.0855 11.1659C27.4528 10.7344 27.7284 10.2327 27.8958 9.69131C28.0631 9.14991 28.1186 8.5801 28.0589 8.0166C26.9336 8.13032 25.8917 8.66147 25.1386 9.50538C24.4021 10.3606 24.0318 11.4714 24.1079 12.5975C24.6796 12.5957 25.2435 12.4663 25.7587 12.2186C26.2739 11.971 26.7272 11.6113 27.0855 11.1659Z" fill="white"/>
<path d="M110.398 36.6469H13.2838C11.5829 36.6469 9.9517 35.9712 8.74899 34.7685C7.54628 33.5658 6.87061 31.9346 6.87061 30.2337V6.41321C6.87061 4.71232 7.54628 3.08109 8.74899 1.87838C9.9517 0.675677 11.5829 0 13.2838 0H110.398C112.099 0 113.73 0.675677 114.933 1.87838C116.136 3.08109 116.811 4.71232 116.811 6.41321V30.2337C116.811 31.9346 116.136 33.5658 114.933 34.7685C113.73 35.9712 112.099 36.6469 110.398 36.6469ZM13.2838 0.916172C11.8259 0.916172 10.4277 1.49532 9.39682 2.52622C8.36593 3.55711 7.78678 4.9553 7.78678 6.41321V30.2337C7.78678 31.6916 8.36593 33.0898 9.39682 34.1207C10.4277 35.1516 11.8259 35.7307 13.2838 35.7307H110.398C111.856 35.7307 113.254 35.1516 114.285 34.1207C115.316 33.0898 115.895 31.6916 115.895 30.2337V6.41321C115.895 4.9553 115.316 3.55711 114.285 2.52622C113.254 1.49532 111.856 0.916172 110.398 0.916172H13.2838Z" fill="#050708"/>
</g>
</g>
<defs>
<clipPath id="clip0_1370_489">
<rect width="124" height="36" fill="white"/>
</clipPath>
</defs>
</svg>
