<svg width="124" height="36" viewBox="0 0 124 36" fill="none" xmlns="http://www.w3.org/2000/svg">
<g clip-path="url(#clip0_1370_463)">
<rect width="124" height="36" fill="#050708"/>
<mask id="mask0_1370_463" style="mask-type:luminance" maskUnits="userSpaceOnUse" x="0" y="0" width="124" height="36">
<path d="M124 0H0V36H124V0Z" fill="white"/>
</mask>
<g mask="url(#mask0_1370_463)">
<path d="M118.259 0H5.74074C2.57022 0 0 2.5184 0 5.625V30.375C0 33.4816 2.57022 36 5.74074 36H118.259C121.43 36 124 33.4816 124 30.375V5.625C124 2.5184 121.43 0 118.259 0Z" fill="#050708"/>
<path d="M62.5756 19.575C61.8034 19.575 61.0485 19.7993 60.4067 20.2196C59.7649 20.6399 59.2643 21.2373 58.9686 21.9363C58.6736 22.6352 58.5961 23.4042 58.7465 24.1462C58.8975 24.8882 59.2689 25.5697 59.8148 26.1047C60.3608 26.6396 61.0566 27.0039 61.8138 27.1515C62.571 27.2991 63.3557 27.2234 64.0693 26.9339C64.7829 26.6443 65.3925 26.1541 65.8214 25.5251C66.2502 24.896 66.4793 24.1565 66.4793 23.4C66.4867 22.8956 66.3914 22.3948 66.198 21.9273C66.0045 21.4598 65.7169 21.0351 65.3529 20.6784C64.989 20.3217 64.5555 20.0403 64.0785 19.8507C63.6014 19.6612 63.0905 19.5674 62.5756 19.575ZM62.5756 25.7063C62.106 25.7288 61.6398 25.6128 61.238 25.3735C60.8361 25.1341 60.5169 24.7822 60.3206 24.3633C60.1248 23.9444 60.0617 23.4776 60.1392 23.023C60.2167 22.5685 60.4308 22.1472 60.7552 21.8133C61.0795 21.4794 61.498 21.2483 61.9573 21.1498C62.4171 21.0513 62.8959 21.0899 63.3328 21.2607C63.7696 21.4314 64.1439 21.7265 64.408 22.1078C64.6721 22.4891 64.8139 22.9392 64.8144 23.4C64.8299 23.6974 64.7834 23.9949 64.6778 24.2741C64.5728 24.5534 64.4103 24.8087 64.2008 25.0245C63.9912 25.2402 63.7392 25.412 63.4596 25.5292C63.1801 25.6464 62.8792 25.7067 62.5756 25.7063ZM54.0217 19.575C53.2497 19.575 52.4949 19.7993 51.8529 20.2196C51.211 20.6399 50.7106 21.2373 50.4152 21.9363C50.1197 22.6352 50.0424 23.4042 50.193 24.1462C50.3436 24.8882 50.7155 25.5697 51.2614 26.1047C51.8074 26.6396 52.5029 27.0039 53.2602 27.1515C54.0174 27.2991 54.8023 27.2234 55.5156 26.9339C56.2289 26.6443 56.8386 26.1541 57.2675 25.5251C57.6965 24.896 57.9256 24.1565 57.9256 23.4C57.933 22.8956 57.8377 22.3948 57.6443 21.9273C57.4508 21.4598 57.1634 21.0351 56.7993 20.6784C56.4353 20.3217 56.0018 20.0403 55.5247 19.8507C55.0476 19.6612 54.5365 19.5674 54.0217 19.575ZM54.0217 25.7063C53.552 25.7288 53.0862 25.6128 52.6843 25.3735C52.2824 25.1341 51.9629 24.7822 51.7671 24.3633C51.5712 23.9444 51.5079 23.4776 51.5853 23.023C51.6627 22.5685 51.8774 22.1472 52.2015 21.8133C52.5256 21.4794 52.9444 21.2483 53.4039 21.1498C53.8633 21.0513 54.3423 21.0899 54.7791 21.2607C55.2159 21.4314 55.5905 21.7265 55.8546 22.1078C56.1186 22.4891 56.26 22.9392 56.2606 23.4C56.2762 23.6974 56.2299 23.9949 56.1243 24.2741C56.0188 24.5534 55.8564 24.8087 55.6469 25.0245C55.4374 25.2402 55.1853 25.412 54.9059 25.5292C54.6265 25.6464 54.3256 25.7067 54.0217 25.7063ZM43.8606 20.7563V22.3875H47.8217C47.7813 23.1505 47.454 23.8718 46.9032 24.4125C46.5069 24.8047 46.0319 25.1122 45.5082 25.3155C44.9845 25.5188 44.4236 25.6136 43.8606 25.5938C43.1371 25.6015 42.4227 25.4351 41.7801 25.1092C41.1376 24.7833 40.5864 24.3078 40.1752 23.7245C39.764 23.1412 39.5051 22.4679 39.4215 21.7637C39.3378 21.0595 39.4318 20.3459 39.6953 19.6856C39.9588 19.0253 40.3836 18.4385 40.9326 17.9767C41.4815 17.5148 42.1378 17.192 42.8438 17.0367C43.5498 16.8814 44.2839 16.8983 44.9816 17.0858C45.6794 17.2734 46.3196 17.6259 46.8458 18.1125L47.994 16.9875C47.4547 16.4541 46.8099 16.0343 46.0991 15.7538C45.3883 15.4733 44.6266 15.338 43.8606 15.3563C43.0157 15.2755 42.1629 15.369 41.3571 15.6305C40.5513 15.892 39.8101 16.3158 39.1815 16.8747C38.5527 17.4336 38.0503 18.1153 37.7065 18.8758C37.3627 19.6363 37.1851 20.4589 37.1851 21.2906C37.1851 22.1224 37.3627 22.945 37.7065 23.7055C38.0503 24.466 38.5527 25.1476 39.1815 25.7065C39.8101 26.2654 40.5513 26.6893 41.3571 26.9508C42.1629 27.2123 43.0157 27.3057 43.8606 27.225C44.6508 27.2589 45.4392 27.1257 46.1722 26.8346C46.9053 26.5434 47.5658 26.101 48.1088 25.5375C49.0752 24.5156 49.591 23.1612 49.544 21.7688C49.5405 21.4283 49.502 21.0891 49.4291 20.7563H43.8606ZM85.4811 21.9938C85.1367 21.15 84.1607 19.575 82.1515 19.575C81.6486 19.5823 81.1526 19.6873 80.6922 19.8843C80.2312 20.0811 79.8156 20.3659 79.4683 20.7218C79.1209 21.0778 78.8494 21.4979 78.6691 21.9577C78.4895 22.4175 78.4045 22.9078 78.42 23.4C78.412 23.9044 78.5078 24.4052 78.7013 24.8727C78.8948 25.3402 79.1818 25.7649 79.5458 26.1216C79.9103 26.4783 80.3437 26.7598 80.8208 26.9493C81.2978 27.1388 81.8088 27.2326 82.3237 27.225C82.9672 27.221 83.5999 27.0656 84.1694 26.772C84.7388 26.4783 85.2279 26.055 85.5959 25.5375L84.2181 24.6375C84.0356 24.9714 83.7618 25.2485 83.4271 25.4374C83.0918 25.6263 82.7095 25.7195 82.3237 25.7063C81.9299 25.7213 81.5407 25.6227 81.2037 25.4227C80.8673 25.2227 80.5975 24.9301 80.4293 24.5813L85.6533 22.4438L85.4811 21.9938ZM80.1422 23.2875C80.1267 23.0067 80.1681 22.7257 80.2634 22.4605C80.3586 22.1954 80.5068 21.9513 80.6991 21.7423C80.8908 21.5333 81.1233 21.3634 81.3822 21.2425C81.6411 21.1215 81.9224 21.0519 82.2089 21.0375C82.5068 21.0215 82.8025 21.0934 83.0585 21.2437C83.314 21.3941 83.5183 21.6162 83.6441 21.8813L80.1422 23.2875ZM75.8941 27H77.6163V15.75H75.8941V27ZM73.0811 20.4188H73.0237C72.7585 20.1443 72.4376 19.9273 72.0816 19.782C71.7257 19.6366 71.3422 19.5661 70.957 19.575C69.9214 19.575 68.9288 19.978 68.1963 20.6953C67.4644 21.4126 67.0533 22.3855 67.0533 23.4C67.0533 24.4145 67.4644 25.3874 68.1963 26.1047C68.9288 26.822 69.9214 27.225 70.957 27.225C71.3422 27.2339 71.7257 27.1634 72.0816 27.0181C72.4376 26.8727 72.7585 26.6558 73.0237 26.3813H73.0811V26.8875C73.0811 28.35 72.2774 29.1375 71.0144 29.1375C70.5804 29.1339 70.1573 29.0034 69.7997 28.7629C69.4415 28.5225 69.1648 28.1828 69.0052 27.7875L67.5126 28.4063C67.8059 29.077 68.2945 29.6482 68.9174 30.0484C69.5402 30.4485 70.2693 30.66 71.0144 30.6563C73.0237 30.6563 74.6885 29.5313 74.6885 26.6625V19.8H73.0811V20.4188ZM71.1293 25.7063C70.8302 25.6991 70.5357 25.6334 70.263 25.5128C69.9903 25.3923 69.7446 25.2194 69.5414 25.0044C69.3381 24.7894 69.1808 24.5367 69.0787 24.2611C68.9771 23.9855 68.9323 23.6927 68.9478 23.4C68.9323 23.1073 68.9771 22.8145 69.0787 22.5389C69.1808 22.2634 69.3381 22.0106 69.5414 21.7956C69.7446 21.5807 69.9903 21.4077 70.263 21.2872C70.5357 21.1667 70.8302 21.1009 71.1293 21.0938C72.2774 21.0938 73.1959 22.05 73.1959 23.4C73.1959 24.75 72.2774 25.7063 71.1293 25.7063ZM93.5181 15.75H89.3848V27H91.107V22.725H93.5181C94.0004 22.74 94.4814 22.6617 94.9332 22.4945C95.3845 22.3273 95.7984 22.0746 96.1503 21.7507C96.5022 21.4268 96.7852 21.0381 96.9838 20.6069C97.1825 20.1756 97.2921 19.7103 97.307 19.2375C97.2921 18.7647 97.1825 18.2994 96.9838 17.8681C96.7852 17.4369 96.5022 17.0483 96.1503 16.7244C95.7984 16.4005 95.3845 16.1477 94.9332 15.9805C94.4814 15.8133 94.0004 15.735 93.5181 15.75ZM93.5756 21.15H91.107V17.325H93.5756C94.0934 17.325 94.5894 17.5265 94.9556 17.8851C95.3219 18.2439 95.5274 18.7303 95.5274 19.2375C95.5274 19.7447 95.3219 20.2312 94.9556 20.5899C94.5894 20.9485 94.0934 21.15 93.5756 21.15ZM104.139 19.575C102.933 19.575 101.613 20.0813 101.096 21.2625L102.589 21.8813C102.752 21.6131 102.989 21.3963 103.275 21.2567C103.559 21.1172 103.879 21.0606 104.196 21.0938C105.057 21.0938 105.976 21.6 105.976 22.5V22.6125C105.423 22.3433 104.812 22.2082 104.196 22.2188C102.531 22.2188 100.866 23.0625 100.866 24.75C100.866 26.4375 102.244 27.225 103.737 27.225C104.171 27.2534 104.605 27.1633 104.99 26.9647C105.374 26.7661 105.696 26.4668 105.918 26.1H105.976V27H107.64V22.6688C107.64 20.6438 106.09 19.575 104.139 19.575ZM103.966 25.7063C103.392 25.7063 102.589 25.425 102.589 24.75C102.589 24.075 103.564 23.5688 104.426 23.5688C104.969 23.5563 105.506 23.6927 105.976 23.9625C105.907 24.44 105.667 24.8779 105.299 25.1975C104.931 25.5172 104.458 25.6975 103.966 25.7063ZM113.668 19.8L111.716 24.6938H111.659L109.592 19.8H107.755L110.798 26.6063L109.076 30.4313H110.855L115.563 19.8H113.668ZM98.2256 27H99.9478V15.75H98.2256V27Z" fill="white"/>
<path d="M43.5721 9.2255C43.5856 9.55535 43.5316 9.88458 43.4133 10.1937C43.295 10.5028 43.1147 10.7856 42.8832 11.0255C42.6198 11.2828 42.3061 11.4852 41.9608 11.6206C41.6154 11.7559 41.2457 11.8214 40.8739 11.813C40.1074 11.8202 39.3674 11.5383 38.8072 11.0255C38.5374 10.7609 38.3267 10.4443 38.1883 10.0957C38.05 9.7471 37.9871 9.37417 38.0035 9.0005C37.9871 8.62683 38.05 8.25389 38.1883 7.90525C38.3267 7.55667 38.5374 7.24004 38.8072 6.9755C39.3674 6.46272 40.1074 6.18074 40.8739 6.188C41.2502 6.18052 41.6233 6.25747 41.9647 6.413C42.2953 6.55357 42.5895 6.76501 42.8258 7.03175L42.3665 7.48175C42.1766 7.26569 41.9371 7.09694 41.6676 6.98933C41.3981 6.88178 41.1064 6.83847 40.8165 6.863C40.2632 6.85282 39.7277 7.05464 39.3239 7.4255C38.9163 7.85272 38.6896 8.41567 38.6896 9.0005C38.6896 9.58533 38.9163 10.1483 39.3239 10.5755C39.7277 10.9464 40.2632 11.1482 40.8165 11.138C41.1004 11.1538 41.3847 11.112 41.6514 11.0152C41.9181 10.9184 42.1616 10.7687 42.3665 10.5755C42.5151 10.4269 42.6321 10.2511 42.711 10.058C42.7898 9.86489 42.8288 9.65845 42.8258 9.4505H40.8165V8.83175H43.5147C43.5147 8.94425 43.5721 9.113 43.5721 9.2255Z" fill="white"/>
<path d="M47.7636 6.97456H45.2951V8.66206H47.534V9.33706H45.2951V11.0246H47.7636V11.6996H44.5488V6.29956H47.7636V6.97456Z" fill="white"/>
<path d="M50.7482 11.6996H50.0593V6.97456H48.5093V6.29956H52.2982V6.97456H50.7482V11.6996Z" fill="white"/>
<path d="M55.0522 11.6996V6.29956H55.7411V11.6996H55.0522Z" fill="white"/>
<path d="M58.9019 11.6996H58.213V6.97456H56.6631V6.29956H60.4519V6.97456H58.9019V11.6996Z" fill="white"/>
<path d="M67.6256 11.0251C67.0866 11.5345 66.3655 11.8171 65.6163 11.8126C64.85 11.8199 64.11 11.5379 63.5497 11.0251C63.0296 10.4741 62.7402 9.75096 62.7402 9.00013C62.7402 8.24937 63.0296 7.52616 63.5497 6.97513C64.11 6.46242 64.85 6.18043 65.6163 6.18763C66.3632 6.19467 67.0802 6.47563 67.6256 6.97513C68.1463 7.52616 68.4356 8.24937 68.4356 9.00013C68.4356 9.75096 68.1463 10.4741 67.6256 11.0251ZM64.0663 10.5751C64.4877 10.9546 65.0446 11.1566 65.6163 11.1376C65.8913 11.149 66.1657 11.105 66.4223 11.0082C66.679 10.9114 66.9126 10.764 67.1089 10.5751C67.4999 10.142 67.7054 9.57793 67.683 9.00013C67.7054 8.42239 67.4999 7.85837 67.1089 7.42513C66.9126 7.2363 66.679 7.08887 66.4223 6.99212C66.1657 6.89537 65.8913 6.85133 65.6163 6.86263C65.0446 6.84368 64.4877 7.04573 64.0663 7.42513C63.676 7.85837 63.4705 8.42239 63.4923 9.00013C63.4705 9.57793 63.676 10.142 64.0663 10.5751Z" fill="white"/>
<path d="M69.4043 11.6996V6.29956H70.2654L72.9636 10.5183V6.29956H73.6524V11.6996H72.9061L70.1506 7.31206H70.0932V11.6996H69.4043Z" fill="white"/>
<path d="M43.5721 9.2255C43.5856 9.55535 43.5316 9.88458 43.4133 10.1937C43.295 10.5028 43.1147 10.7856 42.8832 11.0255C42.6198 11.2828 42.3061 11.4852 41.9608 11.6206C41.6154 11.7559 41.2457 11.8214 40.8739 11.813C40.1074 11.8202 39.3674 11.5383 38.8072 11.0255C38.5374 10.7609 38.3267 10.4443 38.1883 10.0957C38.05 9.7471 37.9871 9.37417 38.0035 9.0005C37.9871 8.62683 38.05 8.25389 38.1883 7.90525C38.3267 7.55667 38.5374 7.24004 38.8072 6.9755C39.3674 6.46272 40.1074 6.18074 40.8739 6.188C41.2502 6.18052 41.6233 6.25747 41.9647 6.413C42.2953 6.55357 42.5895 6.76501 42.8258 7.03175L42.3665 7.48175C42.1766 7.26569 41.9371 7.09694 41.6676 6.98933C41.3981 6.88178 41.1064 6.83847 40.8165 6.863C40.2632 6.85282 39.7277 7.05464 39.3239 7.4255C38.9163 7.85272 38.6896 8.41567 38.6896 9.0005C38.6896 9.58533 38.9163 10.1483 39.3239 10.5755C39.7277 10.9464 40.2632 11.1482 40.8165 11.138C41.1004 11.1538 41.3847 11.112 41.6514 11.0152C41.9181 10.9184 42.1616 10.7687 42.3665 10.5755C42.5151 10.4269 42.6321 10.2511 42.711 10.058C42.7898 9.86489 42.8288 9.65845 42.8258 9.4505H40.8165V8.83175H43.5147C43.5147 8.94425 43.5721 9.113 43.5721 9.2255Z" stroke="white" stroke-width="0.183234" stroke-miterlimit="10"/>
<path d="M47.7636 6.97456H45.2951V8.66206H47.534V9.33706H45.2951V11.0246H47.7636V11.6996H44.5488V6.29956H47.7636V6.97456Z" stroke="white" stroke-width="0.183234" stroke-miterlimit="10"/>
<path d="M50.7482 11.6996H50.0593V6.97456H48.5093V6.29956H52.2982V6.97456H50.7482V11.6996Z" stroke="white" stroke-width="0.183234" stroke-miterlimit="10"/>
<path d="M55.0522 11.6996V6.29956H55.7411V11.6996H55.0522Z" stroke="white" stroke-width="0.183234" stroke-miterlimit="10"/>
<path d="M58.9019 11.6996H58.213V6.97456H56.6631V6.29956H60.4519V6.97456H58.9019V11.6996Z" stroke="white" stroke-width="0.183234" stroke-miterlimit="10"/>
<path d="M67.6256 11.0251C67.0866 11.5345 66.3655 11.8171 65.6163 11.8126C64.85 11.8199 64.11 11.5379 63.5497 11.0251C63.0296 10.4741 62.7402 9.75096 62.7402 9.00013C62.7402 8.24937 63.0296 7.52616 63.5497 6.97513C64.11 6.46242 64.85 6.18043 65.6163 6.18763C66.3632 6.19467 67.0802 6.47563 67.6256 6.97513C68.1463 7.52616 68.4356 8.24937 68.4356 9.00013C68.4356 9.75096 68.1463 10.4741 67.6256 11.0251ZM64.0663 10.5751C64.4877 10.9546 65.0446 11.1566 65.6163 11.1376C65.8913 11.149 66.1657 11.105 66.4223 11.0082C66.679 10.9114 66.9126 10.764 67.1089 10.5751C67.4999 10.142 67.7054 9.57793 67.683 9.00013C67.7054 8.42239 67.4999 7.85837 67.1089 7.42513C66.9126 7.2363 66.679 7.08887 66.4223 6.99212C66.1657 6.89537 65.8913 6.85133 65.6163 6.86263C65.0446 6.84368 64.4877 7.04573 64.0663 7.42513C63.676 7.85837 63.4705 8.42239 63.4923 9.00013C63.4705 9.57793 63.676 10.142 64.0663 10.5751Z" stroke="white" stroke-width="0.183234" stroke-miterlimit="10"/>
<path d="M69.4043 11.6996V6.29956H70.2654L72.9636 10.5183V6.29956H73.6524V11.6996H72.9061L70.1506 7.31206H70.0932V11.6996H69.4043Z" stroke="white" stroke-width="0.183234" stroke-miterlimit="10"/>
<path d="M9.58618 6.80562C9.43629 6.97397 9.32326 7.17062 9.25414 7.38353C9.18502 7.59638 9.16125 7.82087 9.18433 8.04312V27.9556C9.16125 28.1779 9.18502 28.4024 9.25414 28.6153C9.32326 28.8281 9.43629 29.0248 9.58618 29.1931V29.3056L21.0103 18.1119V17.8869L9.64359 6.69312L9.58618 6.80562Z" fill="url(#paint0_linear_1370_463)"/>
<path d="M24.8006 21.8248L21.0117 18.1123V17.8873L24.8006 14.1748H24.9154L29.3932 16.7061C30.7136 17.4373 30.7136 18.5623 29.3932 19.2936L24.9154 21.8248H24.8006Z" fill="url(#paint1_linear_1370_463)"/>
<path d="M24.9162 21.825L21.0125 18L9.58838 29.1937C9.99023 29.6437 10.7365 29.7 11.4828 29.25L24.9162 21.825Z" fill="url(#paint2_linear_1370_463)"/>
<path d="M24.9162 14.1761L11.4828 6.75112C10.7365 6.30112 9.99023 6.35737 9.58838 6.80737L21.0125 18.0011L24.9162 14.1761Z" fill="url(#paint3_linear_1370_463)"/>
<path d="M119.407 36H4.59259C3.37456 36 2.20642 35.5259 1.34514 34.682C0.483861 33.8381 0 32.6935 0 31.5V4.5C0 3.30653 0.483861 2.16193 1.34514 1.31802C2.20642 0.474106 3.37456 0 4.59259 0H119.407C120.626 0 121.794 0.474106 122.655 1.31802C123.516 2.16193 124 3.30653 124 4.5V31.5C124 32.6935 123.516 33.8381 122.655 34.682C121.794 35.5259 120.626 36 119.407 36ZM4.59259 0.9C3.61817 0.9 2.68365 1.27928 1.99463 1.95442C1.30561 2.62955 0.918519 3.54522 0.918519 4.5V31.5C0.918519 32.4548 1.30561 33.3704 1.99463 34.0456C2.68365 34.7207 3.61817 35.1 4.59259 35.1H119.407C120.382 35.1 121.316 34.7207 122.005 34.0456C122.695 33.3704 123.081 32.4548 123.081 31.5V4.5C123.081 3.54522 122.695 2.62955 122.005 1.95442C121.316 1.27928 120.382 0.9 119.407 0.9H4.59259Z" fill="#050708"/>
</g>
</g>
<defs>
<linearGradient id="paint0_linear_1370_463" x1="20.0228" y1="7.84062" x2="4.92282" y2="23.2513" gradientUnits="userSpaceOnUse">
<stop stop-color="#00A0FF"/>
<stop offset="0.01" stop-color="#00A1FF"/>
<stop offset="0.26" stop-color="#00BEFF"/>
<stop offset="0.51" stop-color="#00D2FF"/>
<stop offset="0.76" stop-color="#00DFFF"/>
<stop offset="1" stop-color="#00E3FF"/>
</linearGradient>
<linearGradient id="paint1_linear_1370_463" x1="31.0752" y1="17.9998" x2="8.85283" y2="17.9998" gradientUnits="userSpaceOnUse">
<stop stop-color="#FFE000"/>
<stop offset="0.41" stop-color="#FFBD00"/>
<stop offset="0.78" stop-color="#FFA500"/>
<stop offset="1" stop-color="#FF9C00"/>
</linearGradient>
<linearGradient id="paint2_linear_1370_463" x1="22.8036" y1="20.0644" x2="2.32732" y2="40.9677" gradientUnits="userSpaceOnUse">
<stop stop-color="#FF3A44"/>
<stop offset="1" stop-color="#C31162"/>
</linearGradient>
<linearGradient id="paint3_linear_1370_463" x1="6.70653" y1="0.158596" x2="15.8509" y2="9.49113" gradientUnits="userSpaceOnUse">
<stop stop-color="#32A071"/>
<stop offset="0.07" stop-color="#2DA771"/>
<stop offset="0.48" stop-color="#15CF74"/>
<stop offset="0.8" stop-color="#06E775"/>
<stop offset="1" stop-color="#00F076"/>
</linearGradient>
<clipPath id="clip0_1370_463">
<rect width="124" height="36" fill="white"/>
</clipPath>
</defs>
</svg>
